<svg id="svg" version="1.1" xmlns="http://www.w3.org/2000/svg" xmlns:xlink="http://www.w3.org/1999/xlink" width="400" height="400" viewBox="0, 0, 400,400"><g id="svgg"><path id="path0" d="M246.176 163.780 C 245.086 165.445,246.322 167.600,248.367 167.600 C 249.712 167.600,250.800 166.496,250.800 165.130 C 250.800 162.870,247.419 161.883,246.176 163.780 M94.442 165.673 C 94.241 166.183,93.792 167.410,93.443 168.401 C 92.710 170.485,92.368 170.740,88.077 172.394 C 64.429 181.514,66.260 213.153,90.800 219.434 C 98.041 221.287,107.541 217.969,113.338 211.563 C 125.266 198.382,119.048 177.104,101.777 171.999 C 99.280 171.261,98.416 170.377,97.453 167.575 C 96.462 164.693,95.154 163.866,94.442 165.673 M230.069 167.155 C 226.337 171.186,225.449 173.997,227.209 176.211 C 228.667 178.046,228.694 178.168,228.963 184.153 C 229.279 191.189,230.734 193.275,235.371 193.342 C 239.561 193.403,241.077 190.767,238.141 188.528 C 234.303 185.600,234.563 178.187,238.587 175.829 C 240.994 174.418,241.055 173.223,238.792 171.795 C 237.908 171.237,236.538 169.880,235.748 168.780 C 233.501 165.653,231.888 165.191,230.069 167.155 M155.672 171.707 C 148.901 173.874,150.263 181.482,157.897 184.140 C 164.106 186.301,163.913 188.295,157.413 189.136 C 148.698 190.264,154.018 194.168,163.200 193.383 C 173.177 192.530,174.040 183.345,164.421 180.374 C 158.450 178.529,158.322 176.000,164.200 176.000 C 169.100 176.000,171.080 172.782,166.895 171.620 C 164.988 171.090,157.415 171.149,155.672 171.707 M179.693 171.668 C 175.076 172.701,176.447 175.972,181.519 176.023 C 184.709 176.054,186.565 176.749,186.738 177.978 C 186.949 179.475,185.850 180.000,182.508 180.000 C 174.239 180.000,171.043 188.345,177.746 192.433 C 179.417 193.451,182.386 193.422,185.541 192.357 C 187.671 191.638,188.294 191.579,189.795 191.957 C 194.750 193.205,195.400 192.288,195.399 184.066 C 195.398 175.787,194.601 173.580,191.031 171.959 C 189.207 171.130,182.827 170.966,179.693 171.668 M211.000 172.237 C 208.219 173.237,208.183 173.239,205.667 172.568 C 200.936 171.307,200.290 172.633,200.475 183.220 C 200.614 191.137,201.047 192.400,203.625 192.400 C 206.265 192.400,207.108 190.256,207.171 183.389 C 207.210 179.048,208.408 177.238,211.256 177.213 C 214.417 177.185,214.769 178.293,215.167 189.518 C 215.257 192.037,218.673 193.238,220.430 191.369 C 221.767 189.947,222.144 176.799,220.916 174.400 C 219.358 171.355,215.682 170.553,211.000 172.237 M261.080 171.666 C 256.617 172.908,258.160 175.732,263.501 176.098 C 267.255 176.356,268.400 176.847,268.400 178.200 C 268.400 179.525,267.547 179.871,263.756 180.081 C 258.355 180.381,256.200 182.240,256.200 186.600 C 256.200 192.161,260.729 194.575,267.037 192.377 C 269.128 191.648,269.658 191.607,271.648 192.020 C 276.075 192.940,276.901 191.886,277.129 185.025 C 277.381 177.460,276.339 174.066,273.199 172.222 C 271.573 171.267,263.794 170.910,261.080 171.666 M287.201 171.612 C 282.473 172.611,280.684 176.243,282.392 181.375 C 283.476 184.633,283.245 188.523,281.756 192.088 C 278.885 198.960,283.506 202.279,294.531 201.266 C 306.030 200.209,306.582 190.981,295.346 187.642 C 290.713 186.265,290.616 185.543,294.931 184.541 C 299.375 183.508,301.053 181.791,302.020 177.283 C 302.661 174.293,302.406 172.704,301.192 172.125 C 299.881 171.500,289.529 171.121,287.201 171.612 M312.889 171.788 C 307.080 173.602,304.507 181.937,307.730 188.501 C 310.857 194.868,323.244 195.443,327.000 189.395 C 329.587 185.229,328.533 175.573,325.235 173.225 C 322.441 171.236,316.771 170.576,312.889 171.788 M245.836 173.231 C 243.882 175.552,244.415 190.324,246.505 191.788 C 250.201 194.378,251.400 192.030,251.400 182.199 C 251.400 174.140,251.391 174.054,250.430 173.032 C 249.036 171.549,247.184 171.629,245.836 173.231 M293.600 176.000 C 294.687 177.087,294.642 178.985,293.511 179.777 C 291.476 181.203,288.800 180.080,288.800 177.800 C 288.800 175.432,291.878 174.278,293.600 176.000 M99.000 177.007 C 100.540 177.551,102.250 177.998,102.800 178.000 C 106.168 178.014,109.773 180.608,111.000 183.901 C 111.389 184.946,112.410 186.726,113.269 187.857 C 116.683 192.353,116.597 198.714,113.059 203.349 C 112.269 204.385,111.430 205.947,111.194 206.821 C 110.341 209.990,107.697 212.115,103.690 212.852 C 102.431 213.084,100.450 213.707,99.288 214.237 C 96.598 215.464,94.580 215.454,91.600 214.200 C 90.293 213.650,88.634 213.198,87.912 213.196 C 84.607 213.186,80.645 210.071,79.440 206.536 C 79.120 205.597,78.225 203.999,77.452 202.986 C 74.227 198.763,74.464 191.778,77.987 187.200 C 78.580 186.430,79.379 184.990,79.762 184.000 C 81.029 180.731,84.487 178.030,87.431 178.009 C 88.108 178.004,89.908 177.557,91.431 177.015 C 94.891 175.784,95.539 175.783,99.000 177.007 M320.096 177.190 C 323.620 179.962,321.886 188.400,317.792 188.400 C 314.842 188.400,313.600 186.622,313.600 182.400 C 313.600 177.229,316.841 174.629,320.096 177.190 M186.163 183.986 C 188.511 184.879,187.368 188.400,184.730 188.400 C 182.337 188.400,181.341 186.223,182.982 184.582 C 184.055 183.509,184.626 183.402,186.163 183.986 M268.700 184.682 C 269.393 185.612,269.330 186.127,268.371 187.346 C 266.953 189.149,263.600 188.348,263.600 186.206 C 263.600 183.992,267.351 182.871,268.700 184.682 M294.334 193.039 C 295.541 193.884,295.367 195.588,294.000 196.307 C 291.947 197.387,288.000 196.178,288.000 194.470 C 288.000 192.531,292.241 191.573,294.334 193.039 M257.147 207.004 C 255.926 207.667,255.666 208.218,255.180 211.155 C 254.640 214.424,254.122 214.794,250.038 214.830 C 242.733 214.895,239.828 218.073,239.828 226.000 C 239.828 235.197,244.669 239.403,252.237 236.782 C 254.360 236.046,254.851 236.012,257.068 236.449 C 260.147 237.054,261.338 236.458,262.007 233.975 C 262.669 231.516,262.371 209.731,261.656 208.344 C 260.733 206.553,258.952 206.023,257.147 207.004 M161.000 215.633 C 159.159 216.239,158.087 216.358,156.400 216.144 C 151.050 215.467,151.000 215.559,151.000 226.179 C 151.000 235.872,151.282 236.800,154.225 236.800 C 157.083 236.800,157.929 234.788,157.976 227.880 C 158.010 222.814,159.227 221.018,162.131 221.747 C 163.514 222.094,163.997 223.619,164.024 227.719 C 164.070 234.797,164.897 236.800,167.775 236.800 C 170.346 236.800,170.943 235.521,171.228 229.403 C 171.498 223.582,171.955 222.227,173.805 221.763 C 176.824 221.005,177.515 222.345,177.680 229.271 C 177.828 235.505,178.358 236.600,181.227 236.600 C 183.954 236.600,184.639 235.271,184.981 229.307 C 185.675 217.220,182.568 212.977,174.913 215.561 C 171.857 216.592,171.255 216.595,168.064 215.595 C 164.960 214.622,164.058 214.626,161.000 215.633 M194.878 215.559 C 185.931 218.649,186.344 234.295,195.446 237.034 C 200.115 238.439,207.910 237.373,208.588 235.237 C 209.284 233.044,207.710 232.003,203.681 231.994 C 197.095 231.980,196.373 228.814,202.852 228.356 C 208.849 227.931,211.746 224.422,209.975 219.726 C 208.368 215.461,201.027 213.435,194.878 215.559 M225.215 215.614 C 222.745 216.503,221.287 216.586,219.057 215.967 C 215.177 214.890,214.244 216.460,214.065 224.371 C 213.836 234.511,214.507 236.800,217.712 236.800 C 220.341 236.800,220.952 235.541,221.216 229.574 C 221.507 222.977,222.991 220.651,226.428 221.406 C 228.515 221.864,228.976 223.137,229.200 229.053 C 229.444 235.511,229.963 236.600,232.800 236.600 C 235.725 236.600,236.172 235.573,236.336 228.472 C 236.614 216.466,233.349 212.690,225.215 215.614 M273.400 215.152 C 263.616 217.711,263.275 234.143,272.942 237.202 C 277.484 238.639,284.281 237.129,286.749 234.136 C 289.681 230.578,289.410 221.021,286.281 217.667 C 284.091 215.319,277.605 214.053,273.400 215.152 M319.800 215.412 C 318.920 215.729,318.161 215.991,318.114 215.994 C 318.067 215.997,317.832 216.367,317.592 216.815 C 316.554 218.755,318.162 220.057,322.538 220.819 C 326.674 221.539,326.673 222.149,322.535 223.076 C 317.058 224.303,315.017 226.351,315.006 230.629 C 314.992 236.146,319.812 238.827,325.991 236.740 C 328.319 235.954,328.753 235.923,331.071 236.384 C 335.744 237.313,336.203 236.455,336.193 226.800 C 336.185 218.544,335.211 216.418,330.888 215.218 C 328.688 214.607,321.695 214.729,319.800 215.412 M295.309 215.628 C 291.849 216.674,292.791 219.558,296.800 220.192 C 301.315 220.907,301.363 222.039,297.083 226.862 C 291.812 232.802,291.149 234.558,293.484 236.394 C 295.038 237.617,308.979 237.488,310.359 236.238 C 312.362 234.423,310.957 232.668,307.141 232.219 C 302.671 231.692,302.629 229.936,306.973 225.282 C 311.673 220.247,312.334 218.405,310.169 216.370 C 309.026 215.296,298.197 214.755,295.309 215.628 M201.748 221.142 C 202.576 222.057,202.227 223.133,200.945 223.621 C 199.523 224.162,198.000 223.443,198.000 222.230 C 198.000 220.489,200.500 219.764,201.748 221.142 M254.030 221.432 C 255.375 222.863,255.465 228.118,254.176 229.845 C 251.065 234.012,246.432 229.968,247.568 224.079 C 248.255 220.521,251.807 219.066,254.030 221.432 M279.982 221.521 C 283.133 224.671,281.401 232.000,277.506 232.000 C 274.948 232.000,273.800 230.203,273.800 226.200 C 273.800 220.939,276.988 218.526,279.982 221.521 M327.120 228.880 C 328.276 230.036,327.239 231.700,325.363 231.700 C 323.778 231.700,322.948 230.671,323.520 229.415 C 324.032 228.293,326.209 227.969,327.120 228.880 " stroke="none" fill="#384040" fill-rule="evenodd"></path><path id="path1" d="M0.000 200.000 L 0.000 400.000 200.000 400.000 L 400.000 400.000 400.000 200.000 L 400.000 0.000 200.000 0.000 L 0.000 0.000 0.000 200.000 M250.069 163.462 C 251.628 164.874,250.507 167.600,248.367 167.600 C 246.322 167.600,245.086 165.445,246.176 163.780 C 246.944 162.608,248.945 162.445,250.069 163.462 M97.453 167.575 C 98.416 170.377,99.280 171.261,101.777 171.999 C 119.048 177.104,125.266 198.382,113.338 211.563 C 107.541 217.969,98.041 221.287,90.800 219.434 C 66.260 213.153,64.429 181.514,88.077 172.394 C 92.368 170.740,92.710 170.485,93.443 168.401 C 94.691 164.854,94.764 164.739,95.688 164.873 C 96.374 164.972,96.762 165.566,97.453 167.575 M233.582 166.390 C 233.983 166.605,234.957 167.680,235.748 168.780 C 236.538 169.880,237.908 171.237,238.792 171.795 C 241.055 173.223,240.994 174.418,238.587 175.829 C 234.563 178.187,234.303 185.600,238.141 188.528 C 241.077 190.767,239.561 193.403,235.371 193.342 C 230.734 193.275,229.279 191.189,228.963 184.153 C 228.694 178.168,228.667 178.046,227.209 176.211 C 225.652 174.252,225.685 173.613,227.500 170.710 C 230.234 166.335,231.628 165.345,233.582 166.390 M166.895 171.620 C 171.080 172.782,169.100 176.000,164.200 176.000 C 158.322 176.000,158.450 178.529,164.421 180.374 C 174.040 183.345,173.177 192.530,163.200 193.383 C 154.018 194.168,148.698 190.264,157.413 189.136 C 163.913 188.295,164.106 186.301,157.897 184.140 C 151.493 181.910,149.317 176.827,153.212 173.189 C 155.193 171.338,162.757 170.470,166.895 171.620 M191.031 171.959 C 194.601 173.580,195.398 175.787,195.399 184.066 C 195.400 192.288,194.750 193.205,189.795 191.957 C 188.294 191.579,187.671 191.638,185.541 192.357 C 182.386 193.422,179.417 193.451,177.746 192.433 C 171.043 188.345,174.239 180.000,182.508 180.000 C 185.850 180.000,186.949 179.475,186.738 177.978 C 186.565 176.749,184.709 176.054,181.519 176.023 C 177.764 175.985,176.176 174.812,177.384 172.969 C 178.561 171.172,187.795 170.489,191.031 171.959 M218.415 172.100 C 221.391 173.601,221.653 174.527,221.516 183.069 C 221.403 190.134,221.373 190.366,220.430 191.369 C 218.673 193.238,215.257 192.037,215.167 189.518 C 214.769 178.293,214.417 177.185,211.256 177.213 C 208.408 177.238,207.210 179.048,207.171 183.389 C 207.108 190.256,206.265 192.400,203.625 192.400 C 201.047 192.400,200.614 191.137,200.475 183.220 C 200.290 172.633,200.936 171.307,205.667 172.568 C 208.183 173.239,208.219 173.237,211.000 172.237 C 214.487 170.983,216.140 170.952,218.415 172.100 M273.199 172.222 C 276.339 174.066,277.381 177.460,277.129 185.025 C 276.901 191.886,276.075 192.940,271.648 192.020 C 269.658 191.607,269.128 191.648,267.037 192.377 C 260.729 194.575,256.200 192.161,256.200 186.600 C 256.200 182.240,258.355 180.381,263.756 180.081 C 267.547 179.871,268.400 179.525,268.400 178.200 C 268.400 176.847,267.255 176.356,263.501 176.098 C 258.160 175.732,256.617 172.908,261.080 171.666 C 263.794 170.910,271.573 171.267,273.199 172.222 M301.192 172.125 C 302.406 172.704,302.661 174.293,302.020 177.283 C 301.053 181.791,299.375 183.508,294.931 184.541 C 290.616 185.543,290.713 186.265,295.346 187.642 C 300.819 189.268,302.604 190.761,303.029 194.066 C 303.575 198.315,300.768 200.693,294.531 201.266 C 283.506 202.279,278.885 198.960,281.756 192.088 C 283.245 188.523,283.476 184.633,282.392 181.375 C 280.684 176.243,282.473 172.611,287.201 171.612 C 289.529 171.121,299.881 171.500,301.192 172.125 M322.376 171.792 C 327.056 173.443,328.200 175.533,328.200 182.431 C 328.200 189.928,326.500 192.244,320.231 193.282 C 311.490 194.731,306.584 190.738,306.614 182.200 C 306.644 173.393,313.704 168.732,322.376 171.792 M250.430 173.032 C 251.391 174.054,251.400 174.140,251.400 182.199 C 251.400 192.030,250.201 194.378,246.505 191.788 C 244.415 190.324,243.882 175.552,245.836 173.231 C 247.184 171.629,249.036 171.549,250.430 173.032 M289.689 175.823 C 287.691 177.222,289.017 180.400,291.600 180.400 C 293.173 180.400,294.400 179.338,294.400 177.977 C 294.400 175.636,291.712 174.406,289.689 175.823 M91.431 177.015 C 89.908 177.557,88.108 178.004,87.431 178.009 C 84.487 178.030,81.029 180.731,79.762 184.000 C 79.379 184.990,78.580 186.430,77.987 187.200 C 74.464 191.778,74.227 198.763,77.452 202.986 C 78.225 203.999,79.120 205.597,79.440 206.536 C 80.645 210.071,84.607 213.186,87.912 213.196 C 88.634 213.198,90.293 213.650,91.600 214.200 C 94.580 215.454,96.598 215.464,99.288 214.237 C 100.450 213.707,102.431 213.084,103.690 212.852 C 107.697 212.115,110.341 209.990,111.194 206.821 C 111.430 205.947,112.269 204.385,113.059 203.349 C 116.597 198.714,116.683 192.353,113.269 187.857 C 112.410 186.726,111.389 184.946,111.000 183.901 C 109.773 180.608,106.168 178.014,102.800 178.000 C 102.250 177.998,100.540 177.551,99.000 177.007 C 95.539 175.783,94.891 175.784,91.431 177.015 M315.463 176.853 C 312.935 178.322,312.993 186.605,315.540 187.968 C 319.638 190.161,323.009 185.562,321.550 179.767 C 320.825 176.887,317.852 175.464,315.463 176.853 M182.982 184.582 C 181.791 185.773,181.744 186.544,182.800 187.600 C 183.900 188.700,185.652 188.622,186.779 187.422 C 189.079 184.974,185.366 182.197,182.982 184.582 M264.694 184.398 C 262.706 185.961,263.782 188.400,266.460 188.400 C 267.533 188.400,269.200 186.832,269.200 185.823 C 269.200 183.981,266.364 183.084,264.694 184.398 M288.662 193.131 C 287.235 194.708,288.482 196.388,291.284 196.664 C 294.493 196.980,296.521 194.571,294.334 193.039 C 293.028 192.124,289.522 192.182,288.662 193.131 M260.137 206.844 C 262.057 207.719,262.191 208.579,262.322 220.874 C 262.489 236.460,262.155 237.449,257.068 236.449 C 254.851 236.012,254.360 236.046,252.237 236.782 C 244.669 239.403,239.828 235.197,239.828 226.000 C 239.828 218.073,242.733 214.895,250.038 214.830 C 254.122 214.794,254.640 214.424,255.180 211.155 C 255.860 207.042,257.480 205.633,260.137 206.844 M168.064 215.595 C 171.255 216.595,171.857 216.592,174.913 215.561 C 182.568 212.977,185.675 217.220,184.981 229.307 C 184.639 235.271,183.954 236.600,181.227 236.600 C 178.358 236.600,177.828 235.505,177.680 229.271 C 177.515 222.345,176.824 221.005,173.805 221.763 C 171.955 222.227,171.498 223.582,171.228 229.403 C 170.943 235.521,170.346 236.800,167.775 236.800 C 164.897 236.800,164.070 234.797,164.024 227.719 C 163.997 223.619,163.514 222.094,162.131 221.747 C 159.227 221.018,158.010 222.814,157.976 227.880 C 157.929 234.788,157.083 236.800,154.225 236.800 C 151.282 236.800,151.000 235.872,151.000 226.179 C 151.000 215.559,151.050 215.467,156.400 216.144 C 158.087 216.358,159.159 216.239,161.000 215.633 C 164.058 214.626,164.960 214.622,168.064 215.595 M205.038 215.389 C 213.484 217.897,211.827 227.721,202.852 228.356 C 196.373 228.814,197.095 231.980,203.681 231.994 C 207.710 232.003,209.284 233.044,208.588 235.237 C 207.598 238.357,196.224 238.496,192.213 235.437 C 187.615 231.930,187.266 221.552,191.607 217.393 C 194.077 215.027,200.561 214.060,205.038 215.389 M232.132 215.346 C 235.557 216.777,236.536 219.834,236.336 228.472 C 236.172 235.573,235.725 236.600,232.800 236.600 C 229.963 236.600,229.444 235.511,229.200 229.053 C 228.976 223.137,228.515 221.864,226.428 221.406 C 222.991 220.651,221.507 222.977,221.216 229.574 C 220.952 235.541,220.341 236.800,217.712 236.800 C 214.507 236.800,213.836 234.511,214.065 224.371 C 214.244 216.460,215.177 214.890,219.057 215.967 C 221.287 216.586,222.745 216.503,225.215 215.614 C 227.795 214.687,230.320 214.589,232.132 215.346 M283.800 215.885 C 290.656 219.473,290.696 232.931,283.861 236.488 C 281.815 237.553,275.382 237.974,272.942 237.202 C 263.275 234.143,263.616 217.711,273.400 215.152 C 275.769 214.533,282.064 214.976,283.800 215.885 M330.888 215.218 C 335.211 216.418,336.185 218.544,336.193 226.800 C 336.203 236.455,335.744 237.313,331.071 236.384 C 328.753 235.923,328.319 235.954,325.991 236.740 C 319.812 238.827,314.992 236.146,315.006 230.629 C 315.017 226.351,317.058 224.303,322.535 223.076 C 326.673 222.149,326.674 221.539,322.538 220.819 C 318.162 220.057,316.554 218.755,317.592 216.815 C 317.832 216.367,318.067 215.997,318.114 215.994 C 318.161 215.991,318.920 215.729,319.800 215.412 C 321.695 214.729,328.688 214.607,330.888 215.218 M310.169 216.370 C 312.334 218.405,311.673 220.247,306.973 225.282 C 302.629 229.936,302.671 231.692,307.141 232.219 C 310.957 232.668,312.362 234.423,310.359 236.238 C 308.979 237.488,295.038 237.617,293.484 236.394 C 291.149 234.558,291.812 232.802,297.083 226.862 C 301.363 222.039,301.315 220.907,296.800 220.192 C 293.739 219.708,292.653 218.569,293.587 216.824 C 294.630 214.876,308.184 214.504,310.169 216.370 M198.700 220.832 C 197.622 221.460,197.805 223.146,199.000 223.600 C 201.083 224.392,203.075 222.609,201.748 221.142 C 201.009 220.326,199.783 220.201,198.700 220.832 M248.820 221.379 C 245.471 224.944,248.147 232.684,252.255 231.315 C 255.092 230.369,256.269 223.815,254.030 221.432 C 252.693 220.008,250.132 219.982,248.820 221.379 M274.975 221.626 C 272.082 224.646,273.876 232.000,277.506 232.000 C 280.348 232.000,282.101 228.551,281.392 224.353 C 280.765 220.641,277.321 219.178,274.975 221.626 M323.520 229.415 C 323.144 230.242,323.175 230.547,323.693 231.065 C 324.924 232.295,327.600 231.587,327.600 230.031 C 327.600 228.173,324.313 227.676,323.520 229.415 " stroke="none" fill="#fbfbfb" fill-rule="evenodd"></path></g></svg>